<mxfile host="app.diagrams.net" modified="2024-04-24T10:39:48.264Z" agent="Mozilla/5.0 (X11; Linux x86_64) AppleWebKit/537.36 (KHTML, like Gecko) Chrome/121.0.0.0 Safari/537.36" etag="KO8IFPfReY5OLdsjAEcK" version="24.2.9" type="github">
  <diagram name="Page-1" id="5C8Zx3jnaJmQKk2omNot">
    <mxGraphModel dx="4121" dy="1802" grid="1" gridSize="10" guides="1" tooltips="1" connect="1" arrows="1" fold="1" page="1" pageScale="1" pageWidth="827" pageHeight="1169" math="0" shadow="0">
      <root>
        <mxCell id="0" />
        <mxCell id="1" parent="0" />
        <mxCell id="t2M0ZxysAoBppXOsBu7K-5" style="edgeStyle=orthogonalEdgeStyle;rounded=0;orthogonalLoop=1;jettySize=auto;html=1;exitX=1;exitY=0.5;exitDx=0;exitDy=0;entryX=0;entryY=0.5;entryDx=0;entryDy=0;" edge="1" parent="1" source="t2M0ZxysAoBppXOsBu7K-1" target="t2M0ZxysAoBppXOsBu7K-4">
          <mxGeometry relative="1" as="geometry" />
        </mxCell>
        <mxCell id="t2M0ZxysAoBppXOsBu7K-12" value="Consumes various topics from rabbitMQ" style="edgeLabel;html=1;align=center;verticalAlign=middle;resizable=0;points=[];" vertex="1" connectable="0" parent="t2M0ZxysAoBppXOsBu7K-5">
          <mxGeometry x="-0.15" y="3" relative="1" as="geometry">
            <mxPoint as="offset" />
          </mxGeometry>
        </mxCell>
        <mxCell id="t2M0ZxysAoBppXOsBu7K-1" value="PFM&#39;s RabbitMQ" style="rounded=0;whiteSpace=wrap;html=1;" vertex="1" parent="1">
          <mxGeometry x="1" y="360" width="120" height="60" as="geometry" />
        </mxCell>
        <mxCell id="t2M0ZxysAoBppXOsBu7K-3" style="edgeStyle=orthogonalEdgeStyle;rounded=0;orthogonalLoop=1;jettySize=auto;html=1;exitX=1;exitY=0.5;exitDx=0;exitDy=0;entryX=0;entryY=0.5;entryDx=0;entryDy=0;" edge="1" parent="1" source="t2M0ZxysAoBppXOsBu7K-2" target="t2M0ZxysAoBppXOsBu7K-1">
          <mxGeometry relative="1" as="geometry" />
        </mxCell>
        <mxCell id="t2M0ZxysAoBppXOsBu7K-2" value="PFM Backend" style="whiteSpace=wrap;html=1;aspect=fixed;" vertex="1" parent="1">
          <mxGeometry x="-121" y="350" width="80" height="80" as="geometry" />
        </mxCell>
        <mxCell id="t2M0ZxysAoBppXOsBu7K-7" style="edgeStyle=orthogonalEdgeStyle;rounded=0;orthogonalLoop=1;jettySize=auto;html=1;exitX=1;exitY=0.5;exitDx=0;exitDy=0;" edge="1" parent="1" source="t2M0ZxysAoBppXOsBu7K-4" target="t2M0ZxysAoBppXOsBu7K-6">
          <mxGeometry relative="1" as="geometry" />
        </mxCell>
        <mxCell id="t2M0ZxysAoBppXOsBu7K-4" value="Workflow Gateway Service (Springboot)&lt;br&gt;&lt;br&gt;Horizontally Scalable" style="rounded=0;whiteSpace=wrap;html=1;" vertex="1" parent="1">
          <mxGeometry x="375" y="360" width="120" height="60" as="geometry" />
        </mxCell>
        <mxCell id="t2M0ZxysAoBppXOsBu7K-17" style="rounded=0;orthogonalLoop=1;jettySize=auto;html=1;exitX=1;exitY=0.5;exitDx=0;exitDy=0;entryX=0;entryY=0.5;entryDx=0;entryDy=0;" edge="1" parent="1" source="t2M0ZxysAoBppXOsBu7K-6" target="t2M0ZxysAoBppXOsBu7K-14">
          <mxGeometry relative="1" as="geometry" />
        </mxCell>
        <mxCell id="t2M0ZxysAoBppXOsBu7K-22" value="Cf execution" style="edgeLabel;html=1;align=center;verticalAlign=middle;resizable=0;points=[];" vertex="1" connectable="0" parent="t2M0ZxysAoBppXOsBu7K-17">
          <mxGeometry x="-0.1594" y="-1" relative="1" as="geometry">
            <mxPoint as="offset" />
          </mxGeometry>
        </mxCell>
        <mxCell id="t2M0ZxysAoBppXOsBu7K-18" style="edgeStyle=orthogonalEdgeStyle;rounded=0;orthogonalLoop=1;jettySize=auto;html=1;exitX=1;exitY=0.5;exitDx=0;exitDy=0;entryX=0;entryY=0.5;entryDx=0;entryDy=0;" edge="1" parent="1" source="t2M0ZxysAoBppXOsBu7K-6" target="t2M0ZxysAoBppXOsBu7K-15">
          <mxGeometry relative="1" as="geometry" />
        </mxCell>
        <mxCell id="t2M0ZxysAoBppXOsBu7K-23" value="Cf execution" style="edgeLabel;html=1;align=center;verticalAlign=middle;resizable=0;points=[];" vertex="1" connectable="0" parent="t2M0ZxysAoBppXOsBu7K-18">
          <mxGeometry x="0.0084" y="-2" relative="1" as="geometry">
            <mxPoint as="offset" />
          </mxGeometry>
        </mxCell>
        <mxCell id="t2M0ZxysAoBppXOsBu7K-19" style="rounded=0;orthogonalLoop=1;jettySize=auto;html=1;exitX=1;exitY=0.5;exitDx=0;exitDy=0;entryX=0;entryY=0.5;entryDx=0;entryDy=0;" edge="1" parent="1" source="t2M0ZxysAoBppXOsBu7K-6" target="t2M0ZxysAoBppXOsBu7K-16">
          <mxGeometry relative="1" as="geometry" />
        </mxCell>
        <mxCell id="t2M0ZxysAoBppXOsBu7K-24" value="Cf execution" style="edgeLabel;html=1;align=center;verticalAlign=middle;resizable=0;points=[];" vertex="1" connectable="0" parent="t2M0ZxysAoBppXOsBu7K-19">
          <mxGeometry x="-0.052" y="2" relative="1" as="geometry">
            <mxPoint as="offset" />
          </mxGeometry>
        </mxCell>
        <mxCell id="t2M0ZxysAoBppXOsBu7K-6" value="GCP Pub/Sub" style="rounded=0;whiteSpace=wrap;html=1;" vertex="1" parent="1">
          <mxGeometry x="561" y="360" width="120" height="60" as="geometry" />
        </mxCell>
        <mxCell id="t2M0ZxysAoBppXOsBu7K-8" value="&lt;b&gt;&lt;font style=&quot;font-size: 36px;&quot;&gt;Groups Service System Design&lt;/font&gt;&lt;/b&gt;" style="text;html=1;align=center;verticalAlign=middle;whiteSpace=wrap;rounded=0;" vertex="1" parent="1">
          <mxGeometry x="-120" y="20" width="2150" height="30" as="geometry" />
        </mxCell>
        <mxCell id="t2M0ZxysAoBppXOsBu7K-21" value="" style="edgeStyle=orthogonalEdgeStyle;rounded=0;orthogonalLoop=1;jettySize=auto;html=1;" edge="1" parent="1" source="t2M0ZxysAoBppXOsBu7K-14" target="t2M0ZxysAoBppXOsBu7K-20">
          <mxGeometry relative="1" as="geometry" />
        </mxCell>
        <mxCell id="t2M0ZxysAoBppXOsBu7K-25" value="Firestore Write" style="edgeLabel;html=1;align=center;verticalAlign=middle;resizable=0;points=[];" vertex="1" connectable="0" parent="t2M0ZxysAoBppXOsBu7K-21">
          <mxGeometry x="-0.2" relative="1" as="geometry">
            <mxPoint as="offset" />
          </mxGeometry>
        </mxCell>
        <mxCell id="t2M0ZxysAoBppXOsBu7K-14" value="GroupFormsPayloadHandler" style="rounded=0;whiteSpace=wrap;html=1;" vertex="1" parent="1">
          <mxGeometry x="800" y="220" width="180" height="60" as="geometry" />
        </mxCell>
        <mxCell id="t2M0ZxysAoBppXOsBu7K-31" style="edgeStyle=orthogonalEdgeStyle;rounded=0;orthogonalLoop=1;jettySize=auto;html=1;exitX=1;exitY=0.5;exitDx=0;exitDy=0;entryX=0;entryY=0.5;entryDx=0;entryDy=0;" edge="1" parent="1" source="t2M0ZxysAoBppXOsBu7K-15" target="t2M0ZxysAoBppXOsBu7K-26">
          <mxGeometry relative="1" as="geometry" />
        </mxCell>
        <mxCell id="t2M0ZxysAoBppXOsBu7K-32" value="Firestore Write" style="edgeLabel;html=1;align=center;verticalAlign=middle;resizable=0;points=[];" vertex="1" connectable="0" parent="t2M0ZxysAoBppXOsBu7K-31">
          <mxGeometry x="-0.1273" y="-2" relative="1" as="geometry">
            <mxPoint as="offset" />
          </mxGeometry>
        </mxCell>
        <mxCell id="t2M0ZxysAoBppXOsBu7K-15" value="GroupUnitsPayloadHandler" style="rounded=0;whiteSpace=wrap;html=1;" vertex="1" parent="1">
          <mxGeometry x="800" y="360" width="180" height="60" as="geometry" />
        </mxCell>
        <mxCell id="t2M0ZxysAoBppXOsBu7K-28" style="edgeStyle=orthogonalEdgeStyle;rounded=0;orthogonalLoop=1;jettySize=auto;html=1;exitX=1;exitY=0.5;exitDx=0;exitDy=0;" edge="1" parent="1" source="t2M0ZxysAoBppXOsBu7K-16" target="t2M0ZxysAoBppXOsBu7K-27">
          <mxGeometry relative="1" as="geometry" />
        </mxCell>
        <mxCell id="t2M0ZxysAoBppXOsBu7K-29" value="Firestore Write" style="edgeLabel;html=1;align=center;verticalAlign=middle;resizable=0;points=[];" vertex="1" connectable="0" parent="t2M0ZxysAoBppXOsBu7K-28">
          <mxGeometry x="-0.0909" y="-1" relative="1" as="geometry">
            <mxPoint as="offset" />
          </mxGeometry>
        </mxCell>
        <mxCell id="t2M0ZxysAoBppXOsBu7K-16" value="GroupUsersPayloadHandler" style="rounded=0;whiteSpace=wrap;html=1;" vertex="1" parent="1">
          <mxGeometry x="800" y="500" width="180" height="60" as="geometry" />
        </mxCell>
        <mxCell id="t2M0ZxysAoBppXOsBu7K-20" value="TempGroupForms" style="whiteSpace=wrap;html=1;rounded=0;" vertex="1" parent="1">
          <mxGeometry x="1090" y="220" width="120" height="60" as="geometry" />
        </mxCell>
        <mxCell id="t2M0ZxysAoBppXOsBu7K-26" value="TempVehicleGroups" style="whiteSpace=wrap;html=1;rounded=0;" vertex="1" parent="1">
          <mxGeometry x="1090" y="360" width="120" height="60" as="geometry" />
        </mxCell>
        <mxCell id="t2M0ZxysAoBppXOsBu7K-27" value="TempGroupUsers" style="whiteSpace=wrap;html=1;rounded=0;" vertex="1" parent="1">
          <mxGeometry x="1090" y="500" width="120" height="60" as="geometry" />
        </mxCell>
        <mxCell id="t2M0ZxysAoBppXOsBu7K-33" value="&lt;span style=&quot;font-size: 36px;&quot;&gt;&lt;b&gt;Step 1&lt;/b&gt;&lt;/span&gt;" style="text;html=1;align=left;verticalAlign=middle;whiteSpace=wrap;rounded=0;" vertex="1" parent="1">
          <mxGeometry x="-121" y="140" width="1330" height="30" as="geometry" />
        </mxCell>
        <mxCell id="t2M0ZxysAoBppXOsBu7K-34" value="&lt;span style=&quot;font-size: 36px;&quot;&gt;&lt;b&gt;Step 2&lt;/b&gt;&lt;/span&gt;" style="text;html=1;align=left;verticalAlign=middle;whiteSpace=wrap;rounded=0;" vertex="1" parent="1">
          <mxGeometry x="-121" y="660" width="1330" height="30" as="geometry" />
        </mxCell>
        <mxCell id="t2M0ZxysAoBppXOsBu7K-42" value="" style="rounded=0;orthogonalLoop=1;jettySize=auto;html=1;entryX=0;entryY=0.5;entryDx=0;entryDy=0;exitX=1;exitY=0.5;exitDx=0;exitDy=0;" edge="1" parent="1" source="t2M0ZxysAoBppXOsBu7K-35" target="t2M0ZxysAoBppXOsBu7K-41">
          <mxGeometry relative="1" as="geometry" />
        </mxCell>
        <mxCell id="t2M0ZxysAoBppXOsBu7K-43" value="Runs each 10 sec and consumes TempGroupForms Collection" style="edgeLabel;html=1;align=center;verticalAlign=middle;resizable=0;points=[];" vertex="1" connectable="0" parent="t2M0ZxysAoBppXOsBu7K-42">
          <mxGeometry x="-0.1591" y="-1" relative="1" as="geometry">
            <mxPoint as="offset" />
          </mxGeometry>
        </mxCell>
        <mxCell id="t2M0ZxysAoBppXOsBu7K-45" style="edgeStyle=orthogonalEdgeStyle;rounded=0;orthogonalLoop=1;jettySize=auto;html=1;exitX=1;exitY=0.5;exitDx=0;exitDy=0;entryX=0;entryY=0.5;entryDx=0;entryDy=0;" edge="1" parent="1" source="t2M0ZxysAoBppXOsBu7K-35" target="t2M0ZxysAoBppXOsBu7K-44">
          <mxGeometry relative="1" as="geometry" />
        </mxCell>
        <mxCell id="t2M0ZxysAoBppXOsBu7K-48" value="Runs each 10 sec and consumes TempVehicleGroups Collection" style="edgeLabel;html=1;align=center;verticalAlign=middle;resizable=0;points=[];" vertex="1" connectable="0" parent="t2M0ZxysAoBppXOsBu7K-45">
          <mxGeometry x="-0.0492" y="1" relative="1" as="geometry">
            <mxPoint as="offset" />
          </mxGeometry>
        </mxCell>
        <mxCell id="t2M0ZxysAoBppXOsBu7K-47" style="rounded=0;orthogonalLoop=1;jettySize=auto;html=1;exitX=1;exitY=0.5;exitDx=0;exitDy=0;entryX=0;entryY=0.5;entryDx=0;entryDy=0;" edge="1" parent="1" source="t2M0ZxysAoBppXOsBu7K-35" target="t2M0ZxysAoBppXOsBu7K-46">
          <mxGeometry relative="1" as="geometry" />
        </mxCell>
        <mxCell id="t2M0ZxysAoBppXOsBu7K-49" value="Runs each 10 sec and consumes TempGroupUsers Collection" style="edgeLabel;html=1;align=center;verticalAlign=middle;resizable=0;points=[];" vertex="1" connectable="0" parent="t2M0ZxysAoBppXOsBu7K-47">
          <mxGeometry x="-0.0371" y="2" relative="1" as="geometry">
            <mxPoint as="offset" />
          </mxGeometry>
        </mxCell>
        <mxCell id="t2M0ZxysAoBppXOsBu7K-35" value="Groups Service (Springboot)" style="rounded=0;whiteSpace=wrap;html=1;" vertex="1" parent="1">
          <mxGeometry x="-121" y="841" width="120" height="60" as="geometry" />
        </mxCell>
        <mxCell id="t2M0ZxysAoBppXOsBu7K-51" value="" style="edgeStyle=orthogonalEdgeStyle;rounded=0;orthogonalLoop=1;jettySize=auto;html=1;" edge="1" parent="1" source="t2M0ZxysAoBppXOsBu7K-41" target="t2M0ZxysAoBppXOsBu7K-50">
          <mxGeometry relative="1" as="geometry" />
        </mxCell>
        <mxCell id="t2M0ZxysAoBppXOsBu7K-57" value="&lt;span style=&quot;color: rgba(0, 0, 0, 0); font-family: monospace; font-size: 0px; text-align: start; background-color: rgb(251, 251, 251);&quot;&gt;%3CmxGraphModel%3E%3Croot%3E%3CmxCell%20id%3D%220%22%2F%3E%3CmxCell%20id%3D%221%22%20parent%3D%220%22%2F%3E%3CmxCell%20id%3D%222%22%20value%3D%22Cf%20execution%22%20style%3D%22edgeLabel%3Bhtml%3D1%3Balign%3Dcenter%3BverticalAlign%3Dmiddle%3Bresizable%3D0%3Bpoints%3D%5B%5D%3B%22%20vertex%3D%221%22%20connectable%3D%220%22%20parent%3D%221%22%3E%3CmxGeometry%20x%3D%22738.8692911838311%22%20y%3D%22454.993423804882%22%20as%3D%22geometry%22%2F%3E%3C%2FmxCell%3E%3C%2Froot%3E%3C%2FmxGraphModel%3E&lt;/span&gt;" style="edgeLabel;html=1;align=center;verticalAlign=middle;resizable=0;points=[];" vertex="1" connectable="0" parent="t2M0ZxysAoBppXOsBu7K-51">
          <mxGeometry x="-0.125" y="-4" relative="1" as="geometry">
            <mxPoint as="offset" />
          </mxGeometry>
        </mxCell>
        <mxCell id="t2M0ZxysAoBppXOsBu7K-60" value="Cf execution - Processes 5000 records per execution" style="edgeLabel;html=1;align=center;verticalAlign=middle;resizable=0;points=[];" vertex="1" connectable="0" parent="t2M0ZxysAoBppXOsBu7K-51">
          <mxGeometry x="-0.0999" y="3" relative="1" as="geometry">
            <mxPoint x="1" as="offset" />
          </mxGeometry>
        </mxCell>
        <mxCell id="t2M0ZxysAoBppXOsBu7K-41" value="Group Forms Cron Job" style="whiteSpace=wrap;html=1;rounded=0;" vertex="1" parent="1">
          <mxGeometry x="361" y="720" width="120" height="60" as="geometry" />
        </mxCell>
        <mxCell id="t2M0ZxysAoBppXOsBu7K-53" value="" style="edgeStyle=orthogonalEdgeStyle;rounded=0;orthogonalLoop=1;jettySize=auto;html=1;" edge="1" parent="1" source="t2M0ZxysAoBppXOsBu7K-44" target="t2M0ZxysAoBppXOsBu7K-52">
          <mxGeometry relative="1" as="geometry" />
        </mxCell>
        <mxCell id="t2M0ZxysAoBppXOsBu7K-61" value="Cf execution - Processes 5000 records per execution" style="edgeLabel;html=1;align=center;verticalAlign=middle;resizable=0;points=[];" vertex="1" connectable="0" parent="t2M0ZxysAoBppXOsBu7K-53">
          <mxGeometry x="-0.0749" y="-1" relative="1" as="geometry">
            <mxPoint as="offset" />
          </mxGeometry>
        </mxCell>
        <mxCell id="t2M0ZxysAoBppXOsBu7K-44" value="Group Units Cron Job" style="whiteSpace=wrap;html=1;rounded=0;" vertex="1" parent="1">
          <mxGeometry x="361" y="841" width="120" height="60" as="geometry" />
        </mxCell>
        <mxCell id="t2M0ZxysAoBppXOsBu7K-55" value="" style="edgeStyle=orthogonalEdgeStyle;rounded=0;orthogonalLoop=1;jettySize=auto;html=1;" edge="1" parent="1" source="t2M0ZxysAoBppXOsBu7K-46" target="t2M0ZxysAoBppXOsBu7K-54">
          <mxGeometry relative="1" as="geometry" />
        </mxCell>
        <mxCell id="t2M0ZxysAoBppXOsBu7K-62" value="Cf execution - Processes 5000 records per execution" style="edgeLabel;html=1;align=center;verticalAlign=middle;resizable=0;points=[];" vertex="1" connectable="0" parent="t2M0ZxysAoBppXOsBu7K-55">
          <mxGeometry x="-0.1749" y="2" relative="1" as="geometry">
            <mxPoint as="offset" />
          </mxGeometry>
        </mxCell>
        <mxCell id="t2M0ZxysAoBppXOsBu7K-46" value="Group Users Cron Job" style="whiteSpace=wrap;html=1;rounded=0;" vertex="1" parent="1">
          <mxGeometry x="359" y="960" width="120" height="60" as="geometry" />
        </mxCell>
        <mxCell id="t2M0ZxysAoBppXOsBu7K-67" value="" style="edgeStyle=orthogonalEdgeStyle;rounded=0;orthogonalLoop=1;jettySize=auto;html=1;" edge="1" parent="1" source="t2M0ZxysAoBppXOsBu7K-50" target="t2M0ZxysAoBppXOsBu7K-66">
          <mxGeometry relative="1" as="geometry" />
        </mxCell>
        <mxCell id="t2M0ZxysAoBppXOsBu7K-74" value="Firestore Write" style="edgeLabel;html=1;align=center;verticalAlign=middle;resizable=0;points=[];" vertex="1" connectable="0" parent="t2M0ZxysAoBppXOsBu7K-67">
          <mxGeometry x="-0.0847" relative="1" as="geometry">
            <mxPoint as="offset" />
          </mxGeometry>
        </mxCell>
        <mxCell id="t2M0ZxysAoBppXOsBu7K-50" value="GroupForms" style="whiteSpace=wrap;html=1;rounded=0;" vertex="1" parent="1">
          <mxGeometry x="800" y="720" width="120" height="60" as="geometry" />
        </mxCell>
        <mxCell id="t2M0ZxysAoBppXOsBu7K-69" value="" style="edgeStyle=orthogonalEdgeStyle;rounded=0;orthogonalLoop=1;jettySize=auto;html=1;" edge="1" parent="1" source="t2M0ZxysAoBppXOsBu7K-52" target="t2M0ZxysAoBppXOsBu7K-68">
          <mxGeometry relative="1" as="geometry" />
        </mxCell>
        <mxCell id="t2M0ZxysAoBppXOsBu7K-75" value="Firestore Write" style="edgeLabel;html=1;align=center;verticalAlign=middle;resizable=0;points=[];" vertex="1" connectable="0" parent="t2M0ZxysAoBppXOsBu7K-69">
          <mxGeometry x="-0.1596" y="3" relative="1" as="geometry">
            <mxPoint as="offset" />
          </mxGeometry>
        </mxCell>
        <mxCell id="t2M0ZxysAoBppXOsBu7K-52" value="GroupUnits" style="whiteSpace=wrap;html=1;rounded=0;" vertex="1" parent="1">
          <mxGeometry x="799" y="841" width="120" height="60" as="geometry" />
        </mxCell>
        <mxCell id="t2M0ZxysAoBppXOsBu7K-71" value="" style="edgeStyle=orthogonalEdgeStyle;rounded=0;orthogonalLoop=1;jettySize=auto;html=1;" edge="1" parent="1" source="t2M0ZxysAoBppXOsBu7K-54" target="t2M0ZxysAoBppXOsBu7K-70">
          <mxGeometry relative="1" as="geometry" />
        </mxCell>
        <mxCell id="t2M0ZxysAoBppXOsBu7K-76" value="Firestore Write" style="edgeLabel;html=1;align=center;verticalAlign=middle;resizable=0;points=[];" vertex="1" connectable="0" parent="t2M0ZxysAoBppXOsBu7K-71">
          <mxGeometry x="-0.1452" y="2" relative="1" as="geometry">
            <mxPoint as="offset" />
          </mxGeometry>
        </mxCell>
        <mxCell id="t2M0ZxysAoBppXOsBu7K-54" value="GroupUsers" style="whiteSpace=wrap;html=1;rounded=0;" vertex="1" parent="1">
          <mxGeometry x="801" y="960" width="120" height="60" as="geometry" />
        </mxCell>
        <mxCell id="t2M0ZxysAoBppXOsBu7K-66" value="GroupForms" style="whiteSpace=wrap;html=1;rounded=0;" vertex="1" parent="1">
          <mxGeometry x="1038" y="720" width="120" height="60" as="geometry" />
        </mxCell>
        <mxCell id="t2M0ZxysAoBppXOsBu7K-68" value="VehicleGroups" style="whiteSpace=wrap;html=1;rounded=0;" vertex="1" parent="1">
          <mxGeometry x="1038" y="841" width="120" height="60" as="geometry" />
        </mxCell>
        <mxCell id="t2M0ZxysAoBppXOsBu7K-70" value="GroupUsers" style="whiteSpace=wrap;html=1;rounded=0;" vertex="1" parent="1">
          <mxGeometry x="1038" y="960" width="120" height="60" as="geometry" />
        </mxCell>
        <mxCell id="t2M0ZxysAoBppXOsBu7K-77" value="The android devices fetches data from GroupForms, VehicleGroups and GroupUsers" style="verticalLabelPosition=bottom;verticalAlign=top;html=1;shadow=0;dashed=0;strokeWidth=1;shape=mxgraph.android.tab2;strokeColor=#6c8ebf;direction=north;fillColor=#dae8fc;" vertex="1" parent="1">
          <mxGeometry x="1340" y="640" width="686" height="472" as="geometry" />
        </mxCell>
        <mxCell id="t2M0ZxysAoBppXOsBu7K-78" style="rounded=0;orthogonalLoop=1;jettySize=auto;html=1;exitX=1;exitY=0.5;exitDx=0;exitDy=0;entryX=0.542;entryY=0.004;entryDx=0;entryDy=0;entryPerimeter=0;" edge="1" parent="1" source="t2M0ZxysAoBppXOsBu7K-66" target="t2M0ZxysAoBppXOsBu7K-77">
          <mxGeometry relative="1" as="geometry" />
        </mxCell>
        <mxCell id="t2M0ZxysAoBppXOsBu7K-79" style="edgeStyle=orthogonalEdgeStyle;rounded=0;orthogonalLoop=1;jettySize=auto;html=1;exitX=1;exitY=0.5;exitDx=0;exitDy=0;entryX=0.512;entryY=0.003;entryDx=0;entryDy=0;entryPerimeter=0;" edge="1" parent="1" source="t2M0ZxysAoBppXOsBu7K-68" target="t2M0ZxysAoBppXOsBu7K-77">
          <mxGeometry relative="1" as="geometry" />
        </mxCell>
        <mxCell id="t2M0ZxysAoBppXOsBu7K-80" style="rounded=0;orthogonalLoop=1;jettySize=auto;html=1;exitX=1;exitY=0.5;exitDx=0;exitDy=0;entryX=0.474;entryY=-0.001;entryDx=0;entryDy=0;entryPerimeter=0;" edge="1" parent="1" source="t2M0ZxysAoBppXOsBu7K-70" target="t2M0ZxysAoBppXOsBu7K-77">
          <mxGeometry relative="1" as="geometry" />
        </mxCell>
      </root>
    </mxGraphModel>
  </diagram>
</mxfile>
